<?xml version="1.0" standalone="no"?><!DOCTYPE svg PUBLIC "-//W3C//DTD SVG 1.1//EN" "http://www.w3.org/Graphics/SVG/1.1/DTD/svg11.dtd"><svg t="1511099173696" class="icon" style="" viewBox="0 0 1054 1024" version="1.1" xmlns="http://www.w3.org/2000/svg" p-id="3596" xmlns:xlink="http://www.w3.org/1999/xlink" width="205.859375" height="200"><defs><style type="text/css"></style></defs><path d="M214.991531 213.060993h77.573171c11.667097 0 21.237383-9.534971 21.237383-21.203539V21.20354c0-11.667097-9.570286-21.20354-21.237383-21.20354h-77.573171c-11.805413 0-21.20354 9.536443-21.20354 21.20354v170.653914c0 11.668568 9.398127 21.20354 21.20354 21.203539M761.560216 213.060993h77.6129c11.702412 0 21.20354-9.534971 21.20354-21.203539V21.20354c0-11.667097-9.501128-21.20354-21.20354-21.20354h-77.6129c-11.696526 0-21.33597 9.536443-21.33597 21.20354v170.653914c0 11.668568 9.637973 21.20354 21.33597 21.203539" p-id="3597" fill="#E16757"></path><path d="M930.476352 81.590219H903.232526v110.267235c0 35.269094-28.750587 64.157997-64.05941 64.157996h-77.6129c-35.269094 0-64.157997-28.884489-64.157997-64.157996V81.590219H356.625583v110.267235c0 35.269094-28.750587 64.157997-64.05941 64.157996H214.993002c-35.344137 0-64.128568-28.884489-64.128568-64.157996V81.590219H123.349862C55.346977 81.590219 0 136.895996 0 204.962153v695.454025c0 68.27216 55.346977 123.583822 123.349862 123.583822h807.127961c68.169159 0 123.583822-55.311662 123.583823-123.583822V204.962153c0-68.066158-55.414663-123.371934-123.585294-123.371934m45.426487 818.825959c0 25.111701-20.347158 45.425015-45.425016 45.425015H123.349862c-24.877741 0-45.155741-20.313315-45.15574-45.425015V434.013352h897.708717v466.402826z" p-id="3598" fill="#E16757"></path><path d="M316.653747 737.512371l-4.526168 46.126895H148.098116l4.526168-43.32379c60.638297-33.765276 90.958917-67.680639 90.958917-101.737261 0-28.30621-19.614378-42.461523-58.843133-42.461522-10.491411 0-21.628787 1.007941-33.409185 3.017936l4.095035-40.091023c12.501407-3.157724 30.247048-4.742471 53.239865-4.742471 29.314151 0 51.65659 6.250703 67.034674 18.75211 15.37367 12.501407 23.063447 29.528982 23.063448 51.084197 0 27.017223-10.023491 50.22193-30.069003 69.620005s-41.277008 34.130194-63.69302 44.186058v2.801633c31.75528 0 68.97404-1.077099 111.651865-3.232767zM554.614553 669.615429c0 41.098963-8.621203 71.813931-25.865081 92.144903-17.243878 20.335386-42.246691 30.500137-75.009912 30.500137-31.758223 0-55.717781-8.944921-71.884561-26.834764s-24.247962-46.30494-24.247961-85.248235c0-40.091023 8.73009-71.560842 26.188799-94.407987S426.366246 551.49803 459.127996 551.49803c31.46982 0 55.249861 10.167693 71.344539 30.500136 16.091735 20.335386 24.142018 49.54065 24.142018 87.617263z m-53.239866 13.579977c0-26.296215-3.663901-47.920588-10.993174-64.879005-7.327802-16.952531-19.399546-25.433947-36.210819-25.433947-28.451883 0-42.677825 24.286219-42.677826 72.854243 0 28.883017 3.697744 50.258716 11.10059 64.124154 7.398431 13.869852 19.361289 20.800363 35.888573 20.800363 28.593142-0.001471 42.892656-22.488112 42.892656-67.465808zM687.174197 783.637794h-57.549732c1.578862-37.073087 2.3705-66.95963 2.3705-89.666987 0-23.134077-0.506177-47.85143-1.508232-74.147645l-34.487756 15.088209-11.208006-20.692947 75.655877-58.197169h26.727349c-1.583276 59.203637-2.3705 105.184859-2.3705 137.94808 0 21.98782 0.787224 51.878778 2.3705 89.668459zM938.92981 703.240918c0 25.002814-9.412841 45.517716-28.235581 61.537351-18.827154 16.02552-42.892656 24.033131-72.206807 24.03313-28.883017 0-52.343755-7.507318-70.374856-22.524898-18.035516-15.013165-27.051067-34.449498-27.051067-58.304584 0-17.243878 4.8131-32.832379 14.440773-46.77286 10.345738-15.088209 25.144072-26.512517 44.40236-34.271453v-3.449069c-28.451883-16.522869-42.677825-38.58279-42.677825-66.172407 0-20.116141 8.190069-36.641953 24.57168-49.574493 16.235937-12.501407 36.641953-18.75211 61.215104-18.75211 23.996344 0 43.540093 5.856356 58.628302 17.566124 15.088209 11.714183 22.632314 26.764135 22.632313 45.155741 0 13.509347-3.663901 25.940125-10.993174 37.289389-8.050282 12.64708-19.258288 21.915719-33.625488 27.804447v3.44907c39.514216 20.263285 59.274267 47.927945 59.274266 82.986622z m-53.88583 4.095034c0-27.875077-18.035516-49.861425-54.102134-65.956103-11.353679 4.170078-20.622318 11.892228-27.804447 23.170863-7.188015 11.283049-10.776872 23.387166-10.776872 36.319706 0 15.088209 4.451125 27.12611 13.363675 36.103403 8.908135 8.981708 20.330972 13.47109 34.271453 13.47109 13.073799 0 23.850671-3.987619 32.332087-11.962857 8.47553-7.975238 12.716238-18.35482 12.716238-31.146102z m-6.681838-148.078986c0-11.349264-3.485856-20.36923-10.453153-27.051067-6.971712-6.681837-15.987263-10.023491-27.051067-10.023491-10.776872 0-19.582006 2.839891-26.40363 8.513787-6.82751 5.678311-10.238323 13.185629-10.238323 22.524898 0 21.413956 14.942536 39.228755 44.833494 53.454697 19.537862-9.913133 29.312679-25.719408 29.312679-47.418824z" p-id="3599" fill="#E16757"></path></svg>