<?xml version="1.0" standalone="no"?><!DOCTYPE svg PUBLIC "-//W3C//DTD SVG 1.1//EN" "http://www.w3.org/Graphics/SVG/1.1/DTD/svg11.dtd"><svg t="1508987305514" class="icon" style="" viewBox="0 0 1024 1024" version="1.1" xmlns="http://www.w3.org/2000/svg" p-id="5149" xmlns:xlink="http://www.w3.org/1999/xlink" width="200" height="200"><defs><style type="text/css"></style></defs><path d="M521.83 20.608c-61.713 0-111.957 50.244-111.957 111.957s50.244 111.957 111.957 111.957 111.957-50.244 111.957-111.957-50.244-111.957-111.957-111.957zM784.521 127.104c-49.698 0-89.566 39.868-89.566 89.566s39.868 89.566 89.566 89.566 89.566-40.414 89.566-89.566c0-49.698-39.868-89.566-89.566-89.566zM354.714 582.58l-1.638 28.399v1.092l19.115 327.68h-85.743l-14.199-279.074h-36.591l-17.476 279.074h-80.282l12.561-327.68-6.007-132.71-73.728 105.404-36.045-29.491 104.858-231.561h61.167l58.436 69.359 56.252-68.813h46.967l22.391-51.337h116.873l-8.738 14.746 11.469 23.484-25.122 180.224 39.322 39.868v3.277l1.638-1.638 1.638 1.638v-3.277l39.322-39.868-25.122-180.224 11.469-23.484-8.738-14.746h117.965l15.838 51.337h54.613l58.436 69.359 56.798-69.359h51.883l97.212 215.723-38.775 33.314-64.99-109.227-7.646 147.456v1.092l19.115 327.68h-85.743l-14.199-279.074h-36.045l-17.476 279.074h-80.282l12.561-327.68-1.092-23.484-33.314 27.853 14.746 391.578h-96.119l-21.299-333.687h-43.691l-16.93 333.687h-101.581l22.391-391.578-46.421-34.406zM256.956 127.104c-49.698 0-89.566 39.868-89.566 89.566s40.414 89.566 89.566 89.566c49.698 0 89.566-40.414 89.566-89.566 0.546-49.698-39.868-89.566-89.566-89.566z" fill="#1296db" p-id="5150"></path></svg>