<?xml version="1.0" standalone="no"?><!DOCTYPE svg PUBLIC "-//W3C//DTD SVG 1.1//EN" "http://www.w3.org/Graphics/SVG/1.1/DTD/svg11.dtd"><svg class="icon" width="200px" height="199.61px" viewBox="0 0 1026 1024" version="1.1" xmlns="http://www.w3.org/2000/svg"><path fill="#108ee9" d="M974.633424 448.522923 566.114915 48.747813c-29.431627-28.78596-77.157134-28.78596-106.561858 0L51.061451 448.522923c-29.431627 28.78596-29.431627 75.516065 0 104.302026l135.670651 0c-1.910096 8.124635-3.174526 16.491396-3.174526 25.234795L183.557576 886.446155c0 60.854058 49.232063 110.139926 109.978509 110.139926l132.092583 0 0-253.935213c0-30.05039 19.746631-54.424297 44.120537-54.424297l88.214171 0c24.347004 0 44.093634 24.373906 44.093634 54.424297l0 253.935213 131.420014 0c60.746447 0 109.978509-49.285868 109.978509-110.139926L843.455534 578.059743c0-8.716496-1.26443-17.083257-3.174526-25.234795l134.379318 0C1004.06505 524.038988 1004.06505 477.335785 974.633424 448.522923zM974.633424 448.522923 566.114915 48.747813c-29.431627-28.78596-77.157134-28.78596-106.561858 0L51.061451 448.522923c-29.431627 28.78596-29.431627 75.516065 0 104.302026l135.670651 0c-1.910096 8.124635-3.174526 16.491396-3.174526 25.234795L183.557576 886.446155c0 60.854058 49.232063 110.139926 109.978509 110.139926l132.092583 0 0-253.935213c0-30.05039 19.746631-54.424297 44.120537-54.424297l88.214171 0c24.347004 0 44.093634 24.373906 44.093634 54.424297l0 253.935213 131.420014 0c60.746447 0 109.978509-49.285868 109.978509-110.139926L843.455534 578.059743c0-8.716496-1.26443-17.083257-3.174526-25.234795l134.379318 0C1004.06505 524.038988 1004.06505 477.335785 974.633424 448.522923z" /></svg>