<?xml version="1.0" standalone="no"?><!DOCTYPE svg PUBLIC "-//W3C//DTD SVG 1.1//EN" "http://www.w3.org/Graphics/SVG/1.1/DTD/svg11.dtd"><svg t="1505638688442" class="icon" style="" viewBox="0 0 1024 1024" version="1.1" xmlns="http://www.w3.org/2000/svg" p-id="9162" xmlns:xlink="http://www.w3.org/1999/xlink" width="200" height="200"><defs><style type="text/css"></style></defs><path d="M810.767 256.968L684.251 270.49l86.289 86.325-203.183 211.857-133.408-133.41c-0.378-0.378-0.796-0.72-1.212-1.098a54.897 54.897 0 0 0-1.553-1.403c-0.492-0.416-0.985-0.757-1.477-1.135a29.537 29.537 0 0 0-1.742-1.288c-0.494-0.303-1.023-0.607-1.552-0.948-0.57-0.34-1.176-0.72-1.78-1.022-0.53-0.302-1.136-0.57-1.668-0.834-0.607-0.303-1.213-0.606-1.819-0.834-0.606-0.265-1.212-0.454-1.779-0.68-0.606-0.228-1.212-0.455-1.818-0.607a19.918 19.918 0 0 0-1.858-0.53c-0.606-0.153-1.212-0.303-1.855-0.454-0.644-0.076-1.25-0.19-1.855-0.304-0.683-0.077-1.29-0.19-1.895-0.228-0.645-0.075-1.289-0.114-1.896-0.15-0.643-0.038-1.287-0.077-1.892-0.077-0.646 0-1.29 0-1.896 0.076-0.643 0-1.286 0-1.932 0.076-0.644 0.038-1.249 0.152-1.855 0.226-0.606 0.077-1.29 0.155-1.895 0.305-0.606 0.076-1.213 0.227-1.818 0.377-0.681 0.152-1.287 0.302-1.932 0.456-0.606 0.189-1.174 0.378-1.78 0.606-0.605 0.228-1.211 0.378-1.857 0.643-0.567 0.228-1.173 0.493-1.742 0.796-0.57 0.227-1.175 0.53-1.78 0.796-0.567 0.303-1.137 0.643-1.706 0.984-0.568 0.341-1.135 0.646-1.666 0.984-0.567 0.342-1.099 0.797-1.666 1.175-0.53 0.378-1.06 0.757-1.552 1.136-0.532 0.454-1.062 0.909-1.553 1.366-0.416 0.377-0.872 0.719-1.25 1.098L96.068 707.61c-15.758 15.226-16.136 40.302-0.945 56.06 7.764 8.028 18.142 12.045 28.484 12.045 9.922 0 19.847-3.675 27.538-11.1l254.317-245.794 134.468 134.47c0.076 0.114 0.228 0.188 0.304 0.302 0.075 0.077 0.189 0.19 0.302 0.304 0.38 0.378 0.834 0.72 1.289 1.098 0.455 0.416 0.908 0.87 1.402 1.25 0.568 0.455 1.136 0.833 1.706 1.212 0.491 0.378 0.983 0.757 1.475 1.062 0.607 0.415 1.25 0.757 1.857 1.097 0.491 0.266 0.984 0.607 1.475 0.872 0.644 0.34 1.327 0.605 2.009 0.907 0.491 0.228 0.984 0.454 1.44 0.683 0.757 0.303 1.513 0.53 2.234 0.758 0.455 0.153 0.91 0.34 1.403 0.455 0.757 0.228 1.59 0.417 2.385 0.605 0.418 0.077 0.834 0.228 1.251 0.304 0.907 0.151 1.819 0.265 2.69 0.378 0.34 0.037 0.719 0.114 1.02 0.151 1.29 0.114 2.5 0.151 3.79 0.151a43.9 43.9 0 0 0 3.86-0.15c0.342-0.038 0.683-0.115 1.062-0.152 0.91-0.151 1.818-0.227 2.728-0.418 0.453-0.113 0.908-0.228 1.364-0.34 0.794-0.189 1.59-0.378 2.424-0.605 0.493-0.153 0.984-0.34 1.44-0.53 0.758-0.229 1.514-0.456 2.196-0.758 0.53-0.229 1.061-0.492 1.554-0.72 0.643-0.341 1.326-0.606 2.007-0.947 0.531-0.302 1.06-0.606 1.59-0.948 0.606-0.34 1.212-0.719 1.818-1.098a48.333 48.333 0 0 0 1.515-1.136c0.607-0.454 1.136-0.833 1.706-1.288 0.492-0.416 0.946-0.87 1.44-1.287 0.415-0.417 0.87-0.76 1.325-1.212 0.075-0.076 0.152-0.228 0.265-0.303a0.884 0.884 0 0 0 0.266-0.266l230.075-239.848 83.636 83.6 13.562-126.517 13.523-126.515-126.552 13.525z" p-id="9163" fill="#108ee9"></path></svg>