<?xml version="1.0" standalone="no"?><!DOCTYPE svg PUBLIC "-//W3C//DTD SVG 1.1//EN" "http://www.w3.org/Graphics/SVG/1.1/DTD/svg11.dtd"><svg class="icon" width="200px" height="200.00px" viewBox="0 0 1024 1024" version="1.1" xmlns="http://www.w3.org/2000/svg"><path fill="#888888" d="M590 309.2 434 309.2c-25.8 0-46.8 21-46.8 46.8l0 546c0 25.8 21 46.8 46.8 46.8l156 0c25.8 0 46.8-21 46.8-46.8L636.8 356C636.8 330.2 615.8 309.2 590 309.2zM574.4 870.8c0 8.6-7 15.6-15.6 15.6l-93.6 0c-8.6 0-15.6-7-15.6-15.6L449.6 387.2c0-8.6 7-15.6 15.6-15.6l93.6 0c8.6 0 15.6 7 15.6 15.6L574.4 870.8zM278 512 122 512c-25.8 0-46.8 21-46.8 46.8L75.2 902c0 25.8 21 46.8 46.8 46.8l156 0c25.8 0 46.8-21 46.8-46.8L324.8 558.8C324.8 533 303.8 512 278 512zM262.4 870.8c0 8.6-7 15.6-15.6 15.6l-93.6 0c-8.6 0-15.6-7-15.6-15.6L137.6 590c0-8.6 7-15.6 15.6-15.6l93.6 0c8.6 0 15.6 7 15.6 15.6L262.4 870.8zM902 75.2 746 75.2c-25.8 0-46.8 21-46.8 46.8l0 780c0 25.8 21 46.8 46.8 46.8l156 0c25.8 0 46.8-21 46.8-46.8L948.8 122C948.8 96.2 927.8 75.2 902 75.2zM886.4 870.8c0 8.6-7 15.6-15.6 15.6l-93.6 0c-8.6 0-15.6-7-15.6-15.6L761.6 153.2c0-8.6 7-15.6 15.6-15.6l93.6 0c8.6 0 15.6 7 15.6 15.6L886.4 870.8z" /></svg>