<?xml version="1.0" standalone="no"?><!DOCTYPE svg PUBLIC "-//W3C//DTD SVG 1.1//EN" "http://www.w3.org/Graphics/SVG/1.1/DTD/svg11.dtd"><svg t="1505638426646" class="icon" style="" viewBox="0 0 1024 1024" version="1.1" xmlns="http://www.w3.org/2000/svg" p-id="4517" xmlns:xlink="http://www.w3.org/1999/xlink" width="200" height="200"><defs><style type="text/css"></style></defs><path d="M692.736 882.688c0 31.744 24.064 47.616 47.616 47.616h106.496c31.744 0 47.616-24.064 47.616-47.616V123.392c0-31.744-24.064-47.616-47.616-47.616H740.352c-31.744 0-47.616 24.064-47.616 47.616v759.296z m-284.16 15.872c0 15.872 24.064 31.744 47.616 31.744h106.496c31.744 0 47.616-15.872 47.616-31.744V434.176c0-15.872-24.064-31.744-47.616-31.744H456.192c-24.064 0-47.616 15.872-47.616 31.744V898.56z m-292.352 0c0 8.192 24.064 24.064 47.616 24.064h114.176c31.744 0 47.616-8.192 47.616-24.064V590.336c0-15.872-24.064-24.064-47.616-24.064H163.84c-31.744 0-47.616 8.192-47.616 24.064V898.56z" p-id="4518" fill="#108ee9"></path></svg>