<?xml version="1.0" standalone="no"?><!DOCTYPE svg PUBLIC "-//W3C//DTD SVG 1.1//EN" "http://www.w3.org/Graphics/SVG/1.1/DTD/svg11.dtd"><svg t="1508123709016" class="icon" style="" viewBox="0 0 1024 1024" version="1.1" xmlns="http://www.w3.org/2000/svg" p-id="7320" xmlns:xlink="http://www.w3.org/1999/xlink" width="200" height="200"><defs><style type="text/css"></style></defs><path d="M971.6 11.3H56.2C29 11.3 8.7 31.5 8.7 55v614.6c0 23.5 20.3 43.7 47.5 43.7h415.9l0.9 97.4H239.3c-20.3 0-33.9 9.4-33.9 29.5 0 20.2 14.8 26.2 33.9 27.4h545.9c20.3 0 33.9-9.5 33.9-29.7s-13.6-27.2-33.9-27.2H552.7l-0.4-97.4h415.9c27.1 0 47.5-20.1 47.5-43.7V55c3.4-23.5-20.4-43.7-44.1-43.7z m-10.5 647.9H63.2V65.3H961v593.9zM534.7 302.4h260.6c10.2 0 17-6.7 17-16.8v-26.9c0-10.1-6.8-16.8-17-16.8H534.7c-10.2 0-17 6.7-17 16.8v23.5c0 10.2 6.8 20.2 17 20.2zM232.5 467h562.8c10.2 0 17-6.7 17-16.8v-23.5c0-10.1-6.8-16.8-17-16.8H232.5c-10.2 0-17 6.7-17 16.8v23.5c0 10.1 6.8 16.8 17 16.8z m11.6-124.9h27.3v-14.5h106.8v14.5H406c-0.9-8.7-1.4-16.7-1.4-29.3V156.6c0-8.5 0.2-15.5 1.1-24.7-6.9 1-14 1.2-24.8 1.2H269.8c-10.6 0-18.1-0.2-25.5-1.2 0.7 8 1.1 16.4 1.1 25.9v155c0.1 11.4-0.4 21-1.3 29.3z m27.3-183.3h106.8v56.1H271.4v-56.1z m0 81.5h106.8v61.9H271.4v-61.9z" fill="#E16757" p-id="7321"></path></svg>