<?xml version="1.0" standalone="no"?><!DOCTYPE svg PUBLIC "-//W3C//DTD SVG 1.1//EN" "http://www.w3.org/Graphics/SVG/1.1/DTD/svg11.dtd"><svg t="1508123598685" class="icon" style="" viewBox="0 0 1024 1024" version="1.1" xmlns="http://www.w3.org/2000/svg" p-id="5160" xmlns:xlink="http://www.w3.org/1999/xlink" width="200" height="200"><defs><style type="text/css"></style></defs><path d="M412.024519 601.364307c7.579629-1.300622 14.389732-5.399987 19.079544-11.499915l116.276237-150.693094 141.80261 102.473883c7.241938 5.240351 16.400528 7.081279 25.091468 4.980431 8.68787-2.060939 16.056698-7.800663 20.168342-15.739473L924.594501 164.220179c7.810896-15.058974 1.932002-33.597189-13.129019-41.408085-15.07023-7.807826-33.587979-1.917676-41.409109 13.131065L696.304098 470.988957l-137.073912-99.055017c-13.419637-9.67843-32.159444-7.019881-42.309618 6.139837l-127.153982 164.813696-177.183422 30.700209L212.583165 280.19761c0-15.159258-12.279674-27.439956-27.438932-27.439956-15.150048 0-27.429723 12.280698-27.429723 27.439956l0 532.936845c0 15.158235 12.280698 27.438932 27.429723 27.438932l712.181205 0 0-27.438932 0-27.438932L897.325437 328.794421 780.229532 554.624796c-11.021008 21.239743-30.728862 36.638455-54.078663 42.159192-6.049786 1.479701-12.530384 2.238994-19.008936 2.238994-17.409508 0-34.079166-5.398964-48.198745-15.600303l-101.255125-73.195046-85.757153 111.153566c-12.559037 16.359596-30.767747 27.319206-51.186799 30.840402l-208.160947 36.038798 0-52.341089L412.024519 601.364307z" fill="#E16757" p-id="5161"></path></svg>