<?xml version="1.0" standalone="no"?><!DOCTYPE svg PUBLIC "-//W3C//DTD SVG 1.1//EN" "http://www.w3.org/Graphics/SVG/1.1/DTD/svg11.dtd"><svg t="1508123629237" class="icon" style="" viewBox="0 0 1049 1024" version="1.1" xmlns="http://www.w3.org/2000/svg" p-id="5916" xmlns:xlink="http://www.w3.org/1999/xlink" width="204.8828125" height="200"><defs><style type="text/css"></style></defs><path d="M507.95648 158.72h31.872V0H514.56128a37.8624 37.8624 0 0 1-5.4272 15.1552 30.976 30.976 0 0 1-10.24 9.7024 54.7072 54.7072 0 0 1-13.824 5.4528 67.968 67.968 0 0 1-15.616 1.2032v24.2432h39.0656L507.95648 158.72zM183.96288 298.0864a52.5824 52.5824 0 0 1-10.8288 8.4736c-3.6096 2.432-7.808 4.8384-10.8288 7.2704-6.6048 4.8384-13.2096 9.088-19.2256 13.9264a91.6736 91.6736 0 0 0-15.6416 14.5408 90.3936 90.3936 0 0 0-10.8032 18.176 70.8864 70.8864 0 0 0-3.6096 24.2432h114.2016v-27.8272H153.29408a58.2912 58.2912 0 0 1 13.2352-13.9264 147.2512 147.2512 0 0 1 15.616-11.52c5.4016-3.6352 10.8288-7.2704 15.6416-10.9056a68.9408 68.9408 0 0 0 13.824-12.1344 51.7888 51.7888 0 0 0 10.24-15.1552 52.5312 52.5312 0 0 0 3.6096-20.48 44.8768 44.8768 0 0 0-4.224-20.48 50.176 50.176 0 0 0-11.4176-15.744 58.1888 58.1888 0 0 0-37.2736-13.3376 61.44 61.44 0 0 0-24.6272 4.8384 50.2784 50.2784 0 0 0-18.048 13.3376 61.2096 61.2096 0 0 0-10.8288 20.48 71.3472 71.3472 0 0 0-2.9952 25.4464h30.0544a92.9792 92.9792 0 0 1 1.2032-12.8 33.1264 33.1264 0 0 1 4.1984-11.52 20.9152 20.9152 0 0 1 19.2512-11.52 21.2224 21.2224 0 0 1 16.8192 6.656 24.7808 24.7808 0 0 1 6.6304 18.176 28.16 28.16 0 0 1-3.0208 12.8 25.4208 25.4208 0 0 1-7.1936 9.088z m695.5008 211.456a25.1392 25.1392 0 0 1-12.0064-2.432 29.184 29.184 0 0 1-8.4224-6.656 27.9808 27.9808 0 0 1-5.4016-10.24 39.3216 39.3216 0 0 1-1.8176-12.1088H821.76128a73.344 73.344 0 0 0 3.6096 24.2432 54.7328 54.7328 0 0 0 11.4176 18.176 51.6608 51.6608 0 0 0 18.6368 11.52 74.24 74.24 0 0 0 24.0384 3.6352 62.4128 62.4128 0 0 0 21.6576-3.6352 51.2 51.2 0 0 0 18.6368-10.24 42.6752 42.6752 0 0 0 12.6208-16.3584 53.4784 53.4784 0 0 0 4.8128-22.4256 36.2752 36.2752 0 0 0-7.2192-23.04 31.6416 31.6416 0 0 0-20.48-12.8v-0.6144a25.6 25.6 0 0 0 16.2304-12.1088 38.9632 38.9632 0 0 0 5.4016-20.48 37.7088 37.7088 0 0 0-4.8128-18.7904 44.5696 44.5696 0 0 0-12.032-13.9264 54.7584 54.7584 0 0 0-16.8192-8.4736 66.56 66.56 0 0 0-18.6368-3.0208 51.2 51.2 0 0 0-21.632 4.2496 46.4384 46.4384 0 0 0-16.8448 11.52 47.8464 47.8464 0 0 0-10.8288 17.5616 65.2288 65.2288 0 0 0-4.1984 22.4256h30.0544a33.408 33.408 0 0 1 6.016-20.48 21.1968 21.1968 0 0 1 17.92-7.8848 24.6016 24.6016 0 0 1 15.6416 5.4528 20.1984 20.1984 0 0 1 6.6048 15.744 21.1456 21.1456 0 0 1-2.9952 10.9056 21.5808 21.5808 0 0 1-8.4224 6.0672 31.36 31.36 0 0 1-10.8288 2.432h-10.8032v22.4256h12.1344a31.9744 31.9744 0 0 1 11.4432 2.432 19.7632 19.7632 0 0 1 9.0112 6.656 22.6304 22.6304 0 0 1 3.6096 13.9264 23.04 23.04 0 0 1-7.2192 18.176 20.096 20.096 0 0 1-17.92 8.4736z m108.2112 93.312h-246.4512a74.8032 74.8032 0 0 0-19.84 3.0208l-6.016 1.8176V271.36a61.44 61.44 0 0 0-60.7232-61.7984H394.95808a61.44 61.44 0 0 0-60.7232 61.7984v167.936l-6.016-1.8176a56.32 56.32 0 0 0-19.84-3.0208H61.92768A62.08 62.08 0 0 0 0.00128 496.8448v465.3568A61.44 61.44 0 0 0 60.72448 1024h928.1536A61.44 61.44 0 0 0 1049.60128 962.2016V665.9072a62.592 62.592 0 0 0-61.9264-63.0272z m-653.44 373.76H60.72448a13.6448 13.6448 0 0 1-13.824-13.952l1.2032-465.3312a13.6448 13.6448 0 0 1 13.824-13.9264h246.4512a13.6448 13.6448 0 0 1 13.824 13.9264v10.24l12.032 11.52v457.472z m334.2336 0H381.13408V272.0512a13.6704 13.6704 0 0 1 13.824-13.9264h259.6864a13.6704 13.6704 0 0 1 13.824 13.9264v704.6912z m320.4096 0H715.36768V688.3328l12.0064-12.1088v-10.24a13.6704 13.6704 0 0 1 13.8496-13.9264h246.4512a13.6448 13.6448 0 0 1 13.824 13.9264l1.2032 296.2944a14.1824 14.1824 0 0 1-13.824 14.5408z" p-id="5917" fill="#E16757"></path></svg>