<?xml version="1.0" standalone="no"?><!DOCTYPE svg PUBLIC "-//W3C//DTD SVG 1.1//EN" "http://www.w3.org/Graphics/SVG/1.1/DTD/svg11.dtd"><svg t="1508987731582" class="icon" style="" viewBox="0 0 1024 1024" version="1.1" xmlns="http://www.w3.org/2000/svg" p-id="795" xmlns:xlink="http://www.w3.org/1999/xlink" width="200" height="200"><defs><style type="text/css"></style></defs><path d="M181.832245 910.679846c20.627647-13.605684 34.736445-40.518644 34.736444-64.780529 0-34.216032-28.066228-61.953579-62.734918-61.953579-34.645625 0-62.688788 27.736105-62.688788 61.953579 0 24.260443 14.130421 51.127272 34.711937 64.780529C76.726244 923.028467 40.340626 965.111232 40.340626 996.330208c0 18.473918 56.769638 27.651052 113.493145 27.651051L122.049693 984.980605l26.765918-71.47381h-0.265251l-10.409689-4.218079c5.016718 1.826489 10.277063 6.694723 15.691658 6.694723 5.459284 0 10.698006-6.779777 15.694542-8.521212l-10.366442 6.044568h-0.265252l26.788984 71.561746-31.85039 35.128556c56.78982 0 113.581081-7.303072 113.581081-25.779873 0.001442-31.174287-36.407242-71.34695-85.582607-83.737378M541.839396 910.679846c20.580075-13.605684 34.690314-40.518644 34.690314-64.780529 0-34.216032-28.043163-61.953579-62.73636-61.953579-34.57787 0-62.667164 27.736105-62.667164 61.953579 0 24.260443 14.134746 51.127272 34.691755 64.780529-49.107611 12.34718-85.536477 54.431386-85.536476 85.650362 0 18.473918 56.812885 27.651052 113.513326 27.651051l-31.782635-39.000654 26.832231-71.47381h-0.331565l-10.409689-4.218079c5.016718 1.826489 10.278505 6.694723 15.691658 6.694723 5.506857 0 10.700889-6.779777 15.717607-8.521212l-10.389506 6.044568h-0.265252l26.764477 71.561746-31.830209 35.128556c56.837392 0 113.562341-7.303072 113.562341-25.779873 0.001442-31.174287-36.427424-71.34695-85.514853-83.737378M898.145998 910.679846c20.562776-13.605684 34.648508-40.563333 34.648508-64.823776 0-34.172785-28.06767-61.90889-62.714737-61.908891-34.622559 0-62.687346 27.736105-62.687346 61.908891 0 24.260443 14.108797 51.17052 34.710496 64.823776-49.150858 12.34718-85.514853 54.431386-85.514853 85.604231 0 18.521491 56.768196 27.697183 113.493145 27.697182l-31.805701-39.000654 26.768801-71.519941h-0.223446l-10.429871-4.171948c5.018159 1.826489 10.258323 6.694723 15.6931 6.694723 5.457843 0 10.653317-6.779777 15.694542-8.521212l-10.344818 5.998437h-0.308499l26.787542 71.566071-31.830209 35.170362c56.78982 0 113.559458-7.303072 113.559458-25.779873-0.001442-31.174287-36.407242-71.388756-85.496112-83.737378M332.044014 430.711155c1.672239 1.618901 6.076283 3.151306 13.207807 4.663529 7.154589 1.44591 15.760854 2.988407 25.908174 4.628931 10.102631 1.652057 21.371505 3.096526 33.632191 4.447292a1338.897058 1338.897058 0 0 0 37.090553 3.379076c12.482689 1.00911 24.61219 1.83658 36.428867 2.457903 11.779195 0.694844 22.168702 0.977395 31.126714 0.977395 8.959454 0 19.413832-0.250836 31.410707-0.726559 11.911821-0.438242 24.214312-1.304635 36.849809-2.466553a846.106905 846.106905 0 0 0 37.792606-4.166182c12.658562-1.618901 24.126375-3.325738 34.471193-5.107537 10.28283-1.826489 18.842964-3.781279 25.621299-5.901851 6.821583-2.119131 11.029571-4.34638 12.726317-6.628411 2.30942-3.270958 4.069596-8.108919 5.215657-14.434595 1.189308-6.39199 1.780358-13.194832 1.780358-20.349422 0-7.203603-0.529062-14.303412-1.51799-21.3124-1.011993-7.05512-2.201301-12.84741-3.500169-17.446068-2.640985-7.824926-7.264149-14.205384-13.932925-19.085151-6.626969-4.923015-14.198176-8.933505-22.673257-11.978134-8.479406-3.151306-17.280286-5.90041-26.438678-8.413093-9.113704-2.424747-17.476341-5.11907-25.181616-8.064229-8.560135-3.249334-15.318288-7.01043-20.140391-11.271757-4.799038-4.249794-8.300649-8.751866-10.454378-13.465851-2.134988-4.741375-3.43674-9.38328-3.717849-13.979054-0.35463-4.533786 0-9.129561 0.987486-13.728219 1.298869-7.530843 3.811552-12.84741 7.461646-15.90213 3.634237-3.151306 8.302091-7.008989 13.934366-11.542775 2.666933-1.99083 4.930222-4.82787 6.739412-8.554369a205.043916 205.043916 0 0 0 5.192591-11.542775c1.716928-4.261327 3.236359-8.999818 4.535228-14.218358 1.956232-1.010551 3.825968-2.606387 5.48235-4.923015 1.62755-1.934608 3.125357-4.783181 4.487656-8.565901 1.323376-3.759655 2.335369-8.921973 2.99129-15.455238 0.664571-4.878325 0.88225-8.988286 0.686195-12.22897-0.132626-3.281049-0.374812-6.030152-0.686195-8.358313-0.330123-2.260406-0.834678-4.249794-1.493483-5.880227a323.106887 323.106887 0 0 0-3.03742-35.780153c-1.62755-10.487535-4.294483-21.445026-7.94602-33.107453-3.654419-11.586023-9.286694-22.269613-16.950162-32.085369-3.301231-4.238261-6.360275-7.532284-9.220381-9.79269-2.795234-2.326719-5.613534 2.021103-8.453458 1.195074-2.8183-0.814496-5.744718 4.696686-8.736008 4.696686h-9.420761c-2.335369 0-4.601541-10.490418-6.73653-12.760915-2.181119-2.326719-4.777414-7.206486-7.726898-8.803763-3.017238-1.631875-6.912403-4.535228-11.708558-5.695704-4.865351-1.121554-11.072818-2.739012-18.688714-3.433857-7.021963 0-14.310619 0.237862-21.923633 1.409871-7.63752 1.068215-15.21161 2.949484-22.64875 5.893201a88.369192 88.369192 0 0 0-21.704511 12.412052c-6.958533 5.358373-13.451434 12.130942-19.458522 20.347979-6.605345 8.803763-11.446189 18.704572-14.441804 29.868211-2.99129 11.108858-5.147902 21.370064-6.468394 30.825423a299.085748 299.085748 0 0 0-2.003804 34.303969c-1.30031 2.616478-2.134988 5.725978-2.489618 9.279486-0.614115 3.012914-0.748183 6.478485-0.242186 10.597095 0.529062 4.10996 1.561237 8.740333 3.237801 13.967522 1.672239 5.21854 3.170047 9.280928 4.490539 12.021382 1.320492 2.759195 2.5098 4.989327 3.475662 6.62841 1.368065 1.588627 2.356992 2.751987 2.995615 3.425207 1.343558 5.217098 2.8183 9.957031 4.489098 14.218358a301.314439 301.314439 0 0 0 5.240163 11.498086c1.806307 3.771188 4.052297 6.60967 6.733646 8.599058 4.931664 4.249794 9.55627 8.325156 13.73831 12.270776 4.094103 3.923996 6.514525 9.476983 7.176213 16.63013 0.350305 4.879767 0.482931 9.325617 0.482931 13.29286 0 3.857683-0.748183 7.628871-2.222925 11.208328-1.494924 3.629912-3.983101 7.19207-7.506336 10.824865-3.477104 3.576574-8.364079 7.347761-14.704172 11.260225-7.924396 5.215656-17.345157 9.12812-28.129659 11.782078-10.787384 2.617919-21.065889 5.617859-30.860021 9.030092-9.817197 3.445389-18.446528 8.133425-25.93124 13.979055-7.441464 5.94654-12.061746 14.412972-13.713803 25.508855-2.972549 19.588264-3.654419 35.522109-1.960556 47.804418 1.624667 12.279425 3.93697 19.519068 6.951325 21.824163m185.847764-73.443016c0.991811 3.250775 2.178236 7.163238 3.478545 12.704693a371.585967 371.585967 0 0 1 3.761097 16.880967c1.170567 5.89176 2.24599 11.06561 3.213294 15.837258 0.991811 4.696686 1.499249 7.979176 1.499249 9.967123 0 1.640524-0.751066 3.563599-2.221483 6.086374-1.523756 2.456462-3.347362 4.696686-5.460726 6.812933-2.158054 2.067234-4.425668 4.013374-6.761036 5.642365-2.284913 1.608809-4.310341 2.424747-5.965281 2.424747-1.672239 0-3.588106-0.815937-5.743277-2.424747-2.13643-1.628992-4.226729-3.696225-6.230532-6.129621a92.698274 92.698274 0 0 1-5.237281-7.153148c-1.497807-2.271939-2.222925-4.203663-2.222925-5.857161 0-2.597737 0.396436-6.45542 1.210932-11.498087a432.412226 432.412226 0 0 1 3.012914-16.174589c1.167684-5.759134 2.421864-11.304914 3.722174-16.683469 1.342116-5.401621 1.98218-7.487595 2.662608-10.434196l17.281728-0.001442zM864.314869 563.661379H534.90537v-41.03329c0-12.880567-10.56538-23.311879-23.595872-23.311879-13.031933 0-23.597313 10.432754-23.597313 23.311879v41.03329H155.154263c-13.02905 0-23.59443 10.477444-23.59443 23.30323v118.767906h0.041806c0.198939 12.690277 10.653317 22.91256 23.552624 22.912561 12.90219 0 23.379634-10.222283 23.555507-22.912561h0.041806v-85.550892a11.751805 11.751805 0 0 1 11.623504-9.913784h297.335663v93.465197l0.109561 2.088858c0 12.864709 10.563939 23.300347 23.597313 23.300347 13.030492 0 23.597313-10.435638 23.597313-23.300347l-0.111002-95.554055h293.901806c6.492901 0 11.799377 5.238722 11.799378 11.652336v83.813782h0.043247c0.198939 12.690277 10.653317 22.91256 23.552625 22.91256s23.356569-10.222283 23.575689-22.91256h0.023065v-95.466118h0.109561v-23.30323c0-12.825786-10.542315-23.30323-23.59443-23.30323" p-id="796" fill="#1296db"></path></svg>