<?xml version="1.0" standalone="no"?><!DOCTYPE svg PUBLIC "-//W3C//DTD SVG 1.1//EN" "http://www.w3.org/Graphics/SVG/1.1/DTD/svg11.dtd"><svg t="1508122947950" class="icon" style="" viewBox="0 0 1024 1024" version="1.1" xmlns="http://www.w3.org/2000/svg" p-id="1944" xmlns:xlink="http://www.w3.org/1999/xlink" width="200" height="200"><defs><style type="text/css"></style></defs><path d="M512 109.769115c221.750772 0 402.230885 180.389805 402.230885 402.230885 0 221.750772-180.480113 402.230885-402.230885 402.230885s-402.230885-180.480113-402.230885-402.230885C109.769115 290.068613 290.068613 109.769115 512 109.769115M512 0c-282.753682 0-512 229.201164-512 512s229.201164 512 512 512S1024 794.798836 1024 512C1023.819384 229.201164 794.663374 0 512 0L512 0 512 0zM512 329.126731c100.828645 0 182.828115 81.954317 182.828115 182.873269 0 100.828645-81.954317 182.828115-182.828115 182.828115s-182.873269-81.954317-182.873269-182.828115C329.126731 411.171355 411.081048 329.126731 512 329.126731M512 219.447923c-161.605785 0-292.461769 131.036599-292.461769 292.461769 0 161.605785 131.036599 292.461769 292.461769 292.461769s292.461769-131.036599 292.461769-292.461769C804.506923 350.394215 673.42517 219.447923 512 219.447923L512 219.447923zM585.149308 512c0 40.412735-32.736573 73.149308-73.149308 73.149308s-73.149308-32.736573-73.149308-73.149308c0-40.412735 32.736573-73.149308 73.149308-73.149308S585.149308 471.587265 585.149308 512z" p-id="1945" fill="#E16757"></path></svg>