<?xml version="1.0" standalone="no"?><!DOCTYPE svg PUBLIC "-//W3C//DTD SVG 1.1//EN" "http://www.w3.org/Graphics/SVG/1.1/DTD/svg11.dtd"><svg t="1508411878424" class="icon" style="" viewBox="0 0 1024 1024" version="1.1" xmlns="http://www.w3.org/2000/svg" p-id="1962" xmlns:xlink="http://www.w3.org/1999/xlink" width="200" height="200"><defs><style type="text/css"></style></defs><path d="M650.325333 930.090667a33.664 33.664 0 0 0-32.896-25.685334 27.392 27.392 0 0 0-8.064 1.450667h-0.085333a194.816 194.816 0 0 1-23.424 4.736l-0.426667 0.213333a33.237333 33.237333 0 0 0-21.76 13.994667 35.541333 35.541333 0 0 0-5.504 25.514667c1.408 8.362667 6.4 16.213333 13.994667 21.589333l0.256 0.426667a34.56 34.56 0 0 0 18.816 5.930666h2.090667l1.408-0.64h0.341333c0.682667 0 1.92-0.384 3.072-0.597333 8.917333-1.834667 18.176-3.498667 27.093333-5.717333a33.92 33.92 0 0 0 21.077334-15.146667l0.256-0.469333a33.792 33.792 0 0 0 3.925333-25.258667l-0.170667-0.341333zM894.08 388.736a34.432 34.432 0 0 0 11.904 16.896 30.421333 30.421333 0 0 0 20.096 6.869333 31.402667 31.402667 0 0 0 10.666667-1.877333 34.176 34.176 0 0 0 21.674666-42.922667v-0.213333c-3.242667-8.576-6.186667-17.92-9.984-26.88a34.005333 34.005333 0 0 0-31.658666-21.248 29.909333 29.909333 0 0 0-12.757334 2.688 32.341333 32.341333 0 0 0-18.432 17.962667 32 32 0 0 0 0.256 26.112c2.730667 7.552 5.674667 15.232 8.234667 22.613333zM781.482667 859.264a35.84 35.84 0 0 0-28.586667-14.72 32.853333 32.853333 0 0 0-18.688 5.930667c-7.253333 5.034667-13.568 8.917333-20.266667 12.629333h-0.341333a34.304 34.304 0 0 0-12.757333 46.208 30.08 30.08 0 0 0 9.984 10.666667 32.213333 32.213333 0 0 0 19.242666 6.698666 35.712 35.712 0 0 0 17.578667-4.736c2.602667-1.664 4.992-3.114667 7.594667-4.522666 5.76-3.456 11.264-6.741333 16.341333-10.24l0.426667-0.341334a34.986667 34.986667 0 0 0 14.165333-20.992 34.986667 34.986667 0 0 0-4.352-25.557333l-0.341333-1.024zM981.077333 497.365333a33.834667 33.834667 0 0 0-33.834666-32.512h-1.408a34.048 34.048 0 0 0-32.426667 34.901334v0.426666c0.426667 7.850667 0.426667 15.701333 0 23.893334v1.322666a35.925333 35.925333 0 0 0 14.677333 27.349334 30.848 30.848 0 0 0 19.157334 6.229333h0.341333A33.621333 33.621333 0 0 0 981.333333 525.653333c0-9.386667 0-18.773333-0.256-28.288zM880.981333 749.909333a32.170667 32.170667 0 0 0-20.352-6.954666 34.474667 34.474667 0 0 0-26.922666 13.738666l-0.341334 0.128c-4.48 6.4-9.770667 12.757333-15.232 19.242667l-0.085333 0.298667a34.730667 34.730667 0 0 0-7.765333 24.576 32.597333 32.597333 0 0 0 11.434666 22.613333c0.896 1.066667 2.090667 1.706667 3.754667 2.730667a33.578667 33.578667 0 0 0 18.986667 5.632 34.773333 34.773333 0 0 0 25.344-11.648h0.341333c6.229333-7.552 12.245333-15.061333 17.92-22.741334l0.256-0.426666a34.176 34.176 0 0 0-7.338667-47.189334zM938.666667 612.864c-4.010667-1.749333-7.68-1.749333-10.581334-1.749333a33.322667 33.322667 0 0 0-32.170666 23.808c-2.432 7.552-5.333333 15.36-7.936 23.338666h-0.256a34.005333 34.005333 0 0 0 12.074666 39.936c1.749333 1.322667 3.925333 2.133333 6.186667 3.328l0.597333 0.213334 0.981334 0.384a33.92 33.92 0 0 0 43.008-19.84l0.256-0.256c2.901333-8.405333 6.186667-17.578667 9.173333-26.581334a33.621333 33.621333 0 0 0-21.333333-42.581333zM462.677333 924.842667a34.389333 34.389333 0 0 0-21.76-13.610667 403.882667 403.882667 0 0 1-97.066666-30.549333l-2.176-2.133334h-2.005334c-6.826667-3.242667-13.738667-6.314667-19.157333-9.984l-2.944-1.578666h-0.426667a397.226667 397.226667 0 0 1-35.754666-22.656 399.701333 399.701333 0 0 1-164.266667-259.797334 397.568 397.568 0 0 1 67.413333-299.733333 388.608 388.608 0 0 1 98.602667-98.005333l1.152-1.152a401.621333 401.621333 0 0 1 229.077333-71.082667c79.402667 0 156.416 23.253333 222.165334 67.114667l3.669333 2.517333-42.154667 61.397333 145.834667-14.421333a16.938667 16.938667 0 0 0 13.994667-7.466667 18.005333 18.005333 0 0 0 2.090666-15.402666l-39.68-141.738667-42.325333 60.8-3.498667-2.005333a464.384 464.384 0 0 0-260.565333-79.573334c-27.904 0-55.168 2.261333-81.578667 7.125334l-2.688 0.597333c-11.008 2.048-22.186667 4.053333-32.853333 7.125333l-1.536 0.426667a462.08 462.08 0 0 0-258.005333 172.8l-3.242667 4.821333-0.170667 0.170667c-1.322667 2.005333-3.072 4.266667-4.48 6.741333-3.754667 4.992-6.912 9.813333-9.941333 14.848l-1.066667 2.133334a465.365333 465.365333 0 0 0-74.24 273.749333v1.834667c0.426667 8.832 1.578667 18.389333 2.090667 27.648v0.810666l0.512 1.877334c1.152 9.770667 2.432 19.114667 4.266667 27.776a463.786667 463.786667 0 0 0 131.328 252.416l0.597333 0.469333c19.157333 18.858667 39.509333 35.797333 59.989333 50.304a459.648 459.648 0 0 0 186.837334 78.165333 33.408 33.408 0 0 0 39.466666-27.264v-0.256a37.205333 37.205333 0 0 0-5.077333-24.576l-0.426667-0.682666z" p-id="1963" fill="#E16757"></path><path d="M489.002667 211.242667a26.88 26.88 0 0 0-26.666667 27.008v304.384l278.4 144.256c3.84 2.133333 7.594667 2.944 12.16 2.944 10.325333 0 19.328-5.546667 24.064-14.378667 2.986667-6.4 3.925333-13.653333 1.578667-20.437333a26.325333 26.325333 0 0 0-13.184-15.616l-249.770667-129.109334V238.250667a26.666667 26.666667 0 0 0-26.581333-27.008z" p-id="1964" fill="#E16757"></path></svg>